<svg width="1265" height="793" viewBox="0 0 1265 793" fill="none" xmlns="http://www.w3.org/2000/svg">
<path d="M812.379 0.742089C802.194 3.20734 794.679 8.7866 785.978 20.2695C772.135 38.4345 760.171 69.8989 752.36 108.759C749.195 124.394 748.602 124.07 761.852 112.976C827.804 57.6375 855.391 17.8042 836.604 4.82922C830.671 0.677214 819.893 -1.13929 812.379 0.742089Z" fill="#2196F3"/>
<path d="M424.875 50.1119C417.261 51.4743 408.066 54.6532 403.913 57.2482C398.178 60.9461 396.003 64.7088 396.101 70.5476C396.2 82.7441 408.659 97.6005 449.298 133.801C488.355 168.639 502.989 185.117 509.119 201.206C510.899 205.877 511.196 208.342 510.899 213.857C510.602 220.214 510.306 221.123 506.944 225.729C502.494 231.827 493.496 237.99 484.894 240.78C480.049 242.337 478.269 242.596 473.128 242.337C469.469 242.207 465.118 241.493 462.152 240.52C454.44 238.055 439.113 227.48 423.59 213.922C399.562 193.032 387.4 186.025 375.139 186.025C363.175 186.025 349.925 193.875 349.925 201.076C349.925 203.217 353.089 208.407 356.451 211.651C358.231 213.403 366.042 219.436 373.656 224.95C395.014 240.326 400.057 246.035 399.167 253.755C398.672 257.128 397.98 258.556 395.014 261.475C388.686 267.768 381.27 270.493 370.789 270.493C359.714 270.493 350.914 267.768 323.821 255.896C294.949 243.245 283.875 241.299 272.207 246.943C266.769 249.538 261.726 255.377 261.133 259.658C260.836 262.383 261.232 263.875 263.209 266.665C267.758 273.282 276.755 278.407 305.925 291.123C333.017 302.93 341.718 308.055 347.058 315.451C352.002 322.198 350.716 329.853 343.894 334.07C337.862 337.833 329.754 339.195 313.835 339.195C291.884 339.13 278.535 337.509 212.979 327.129C187.37 323.106 159.585 318.889 151.18 317.787C119.242 313.764 99.5657 313.635 88.6891 317.527C82.262 319.798 79.7901 322.003 79.1968 326.026C78.8013 328.88 79.0979 329.399 81.9654 331.605C91.7543 338.871 120.231 343.088 186.282 346.851C245.807 350.289 255.596 350.938 271.317 352.17C316.208 355.738 340.73 360.993 346.465 368.389C350.815 373.904 344.19 386.36 333.215 393.236C322.635 399.854 307.408 403.357 283.479 404.719C263.704 405.822 239.083 404.719 189.248 400.437C137.535 396.026 135.953 395.961 110.64 395.896C87.997 395.896 85.8216 396.026 78.1091 397.453C58.2346 401.151 49.5333 409.001 50.5221 422.106C51.2143 430.475 55.2683 434.756 65.6505 437.805C69.7045 439.038 72.7697 439.362 83.4486 439.557C103.62 439.946 122.802 437.481 180.25 426.971C237.995 416.462 261.429 413.218 285.654 412.634C297.915 412.31 302.662 412.504 309.385 413.348C325.601 415.488 336.28 420.419 341.916 428.204C345.871 433.718 347.256 438.973 346.761 446.953C346.465 452.337 345.871 454.219 344.091 456.554C336.379 466.286 323.525 471.605 286.643 480.558C242.544 491.263 231.865 496.972 233.546 508.973C234.04 513.19 237.995 518.834 241.357 520.391C246.202 522.597 254.508 521.17 263.407 516.629C265.582 515.526 275.173 509.817 284.666 503.913C311.363 487.37 321.251 483.153 333.116 483.023C341.026 482.959 346.366 484.775 354.375 490.419C379.49 507.806 377.018 520.975 346.662 532.977C338.851 536.091 331.831 538.362 300.684 547.574C269.34 556.916 258.957 562.625 258.957 570.475C258.957 576.638 269.834 585.591 281.996 589.548C287.929 591.43 289.214 591.624 295.74 591.43C306.221 591.04 312.45 588.77 324.316 581.115C333.907 574.822 339.741 569.891 359.813 551.207C378.897 533.366 390.762 526.555 401.144 527.593C407.868 528.241 415.482 533.561 421.414 541.606C439.113 565.804 426.259 589.938 379.49 619.715C367.13 627.63 353.287 635.415 315.318 656.045C285.259 672.329 269.636 682.32 261.133 690.624C254.409 697.241 252.036 701.523 252.036 706.972C252.036 714.563 261.034 722.283 277.052 728.251C298.805 736.426 314.527 735.712 328.568 725.786C342.312 715.99 349.035 705.48 373.162 656.045C393.333 614.72 408.263 596.814 430.61 586.953C441.289 582.282 449.496 580.79 463.141 580.855C476.193 580.985 486.476 582.736 501.802 587.602C518.117 592.792 523.456 598.047 523.259 609.011C523.16 615.628 520.886 622.18 513.47 637.361C501.506 662.014 500.517 669.085 508.328 674.924C512.679 678.168 518.315 679.854 526.027 680.244C534.135 680.633 538.783 679.66 543.924 676.611C551.241 672.264 555.691 664.739 561.525 646.314C568.248 625.554 572.698 616.99 579.323 612.06C590.793 603.496 610.865 603.951 620.852 613.033C624.906 616.666 627.476 622.505 628.861 631.133C630.838 643.395 628.663 658.186 618.38 701.782C611.359 731.754 609.777 742.718 610.272 757.51C610.568 766.982 611.063 771.263 612.447 774.442C616.204 783.46 622.038 788.65 631.629 791.569C638.254 793.58 654.47 793.451 662.875 791.31C682.057 786.509 689.077 777.102 687.792 757.964C686.902 744.211 682.354 730.587 667.324 696.917C647.648 652.802 642.704 635.999 645.571 622.699C647.746 612.19 652.888 606.675 663.765 603.042C668.61 601.42 671.378 600.966 677.805 600.707C682.552 600.512 687.298 600.707 689.374 601.161C698.57 603.172 707.469 609.27 714.39 618.288C716.269 620.688 721.114 627.889 725.168 634.377C729.222 640.8 734.561 648.65 737.132 651.828C744.746 661.56 754.733 666.231 765.411 665.193C771.74 664.544 779.155 662.079 782.715 659.419C791.911 652.542 789.34 645.6 767.982 619.715C759.676 609.595 755.622 603.107 754.337 597.787C752.36 589.743 755.919 584.423 766.104 579.947C779.947 573.913 792.603 572.746 804.369 576.573C821.772 582.153 834.132 593.83 857.764 626.592C863.993 635.285 872.002 646.184 875.463 650.79C888.02 667.139 900.479 677.649 912.542 681.995C917.288 683.682 918.969 683.942 925.99 683.942C933.307 683.942 934.592 683.747 941.415 681.476C960.498 675.119 968.112 666.296 962.97 656.37C957.037 644.822 942.008 634.701 893.261 609.335C843.723 583.58 824.936 570.994 819.003 559.511C812.082 546.341 824.936 533.561 847.678 530.966C862.905 529.279 881.692 534.275 904.138 546.147C908.488 548.417 924.704 558.473 940.228 568.464C976.813 592.014 989.173 598.825 1004 603.626C1012.8 606.481 1018.24 607.259 1026.94 606.935C1036.93 606.546 1040.39 605.378 1042.57 601.55C1048.01 592.338 1036.73 582.088 1007.07 569.178C1001.04 566.583 983.833 559.706 968.903 553.867C924.704 536.675 906.412 528.047 897.117 519.937C891.679 515.137 890.394 513.58 888.91 509.492C886.636 503.524 890.196 496.972 898.798 491.263C901.468 489.446 903.643 487.63 903.643 487.111C903.643 485.294 909.081 477.379 913.234 473.227C918.277 468.232 924.21 464.988 932.12 462.912C939.437 461.031 957.037 460.901 966.925 462.653C987.294 466.221 1010.93 473.617 1054.93 490.225C1084.29 501.383 1104.76 508.065 1117.22 510.79C1124.04 512.282 1127.4 512.606 1135.12 512.671C1143.92 512.671 1144.91 512.542 1149.36 510.725C1154.6 508.584 1158.75 504.432 1160.83 499.307C1162.41 495.544 1161.52 493.468 1157.17 490.289C1147.08 482.959 1128.89 479.196 1058.49 469.789C997.38 461.615 976.22 457.787 957.73 451.559C929.846 442.152 926.978 429.566 949.127 415.034C957.334 409.585 965.936 406.406 978.296 404.265C989.272 402.319 1021.31 402.643 1048.5 404.914C1093.59 408.677 1109.61 407.703 1120.48 400.567C1129.78 394.469 1131.95 384.219 1127.4 367.092C1126.51 363.783 1125.13 360.669 1124.44 360.215C1123.75 359.696 1123.45 358.917 1123.75 358.333C1124.64 356.776 1119.1 350.743 1114.95 348.797C1106.74 344.904 1094.97 344.969 1076.68 348.991C1071.24 350.159 1051.37 356.322 1029.71 363.523C974.835 381.689 961.388 384.867 942.206 384.413C930.044 384.089 925.1 382.921 918.079 378.704C909.576 373.579 901.567 359.89 903.05 353.208C903.94 349.186 908.884 344.061 914.718 341.012C921.54 337.509 934.493 333.486 953.577 329.075C985.02 321.874 994.71 318.825 1002.03 314.154C1007.96 310.391 1009.84 307.342 1009.25 302.541C1008.65 298 1003.71 291.123 999.357 288.917C991.348 284.96 982.054 285.673 959.608 292.161C939.635 297.87 928.56 300.27 919.464 300.66C907.598 301.243 898.403 299.038 888.713 293.264C880.407 288.333 878.528 282.105 883.67 276.785C890.69 269.584 903.05 264.524 953.577 248.046C999.456 233.06 1013.6 227.416 1024.87 219.631C1028.72 216.971 1033.17 213.078 1034.66 211.067C1040.79 202.828 1037.23 193.94 1024.37 185.376C1017.16 180.641 1011.72 178.565 1003.11 177.527C998.368 176.943 996.292 177.072 989.469 178.175C967.123 181.938 947.248 193.745 902.16 230.465C869.629 256.869 856.577 265.627 843.822 269.455C833.934 272.439 825.727 270.622 819.893 264.005C817.421 261.28 817.125 260.307 817.125 255.117C817.125 245.581 822.168 238.185 844.514 214.7C867.849 190.177 873.683 181.03 871.211 173.115C869.036 166.303 859.642 161.373 848.865 161.373C841.251 161.373 835.813 163.059 828.595 167.795C820.783 172.856 814.06 179.408 798.832 196.73C776.782 221.836 768.18 229.102 755.82 233.189C749.591 235.265 744.251 235.59 738.022 234.357C723.981 231.438 718.148 223.393 720.62 210.613C721.806 204.709 725.267 195.043 732.485 178.175C743.658 151.836 741.384 141.002 723.883 136.72C713.797 134.255 704.404 135.488 698.57 140.029C692.538 144.7 688.979 151.512 681.662 172.077C672.565 197.703 663.27 205.618 643.594 204.709C631.333 204.125 623.027 199.844 619.665 192.318C617.786 188.101 618.281 173.504 620.753 159.751C623.323 146.127 623.225 136.136 620.555 132.179C617.193 127.184 610.964 124.783 601.57 124.783C589.804 124.848 583.476 127.832 581.201 134.45C579.52 139.38 581.004 146.581 587.233 162.67C593.363 178.629 595.143 185.052 595.143 190.502C595.143 201.725 588.419 205.942 569.534 206.591C557.965 207.045 550.945 206.137 541.947 203.217C532.949 200.233 526.027 196.081 519.6 189.723C506.351 176.553 499.132 160.983 489.344 124.394C478.071 81.8359 472.139 68.0823 460.965 58.1564C452.264 50.4363 439.212 47.5169 424.875 50.1119Z" fill="#2196F3"/>
<path d="M1045.73 273.023C1040.1 273.866 1036.83 275.164 1032.78 278.148C1027.93 281.651 1026.15 284.635 1026.15 288.917C1026.15 296.897 1035.94 304.033 1048.4 305.136C1061.65 306.369 1075.69 297.935 1075.69 288.852C1075.59 278.991 1060.07 270.752 1045.73 273.023Z" fill="#2196F3"/>
<path d="M15.717 300.27C6.91687 302.865 1.18193 307.99 0.193148 314.154C-0.301243 316.878 0.0942702 318.241 2.07183 321.03C6.71911 327.712 14.8271 331.281 25.0116 331.345C32.3286 331.345 37.9646 329.659 42.9085 326.026C47.7536 322.587 49.6322 319.473 49.6322 315.062C49.7311 303.838 31.0431 295.729 15.717 300.27Z" fill="#2196F3"/>
<path d="M1147.87 421.911C1116.92 423.403 1066.79 427.166 1066.79 427.945C1066.89 429.047 1118.8 442.606 1143.92 448.121C1182.18 456.554 1207 460.058 1228.95 460.058C1241.61 460.058 1243.98 459.863 1249.02 458.566C1255.55 456.879 1260.89 454.089 1263.26 451.105C1265.74 448.056 1265.54 440.66 1262.87 437.416C1256.94 430.15 1242.89 425.739 1217.58 423.079C1207.89 422.106 1160.83 421.327 1147.87 421.911Z" fill="#2196F3"/>
<path d="M169.868 548.028C75.0439 556.073 17.1013 568.788 5.8292 583.969C3.35724 587.407 3.25836 592.857 5.73032 596.36C9.38881 601.68 19.771 605.767 29.4611 605.767C56.8503 605.702 106.586 588.9 166.012 559.576C184.107 550.688 192.907 546.082 191.72 546.147C191.424 546.212 181.635 546.99 169.868 548.028Z" fill="#2196F3"/>
<path d="M425.406 406.688L443.219 412.969V421.719L416.312 410.312V402.938L443.219 391.531V400.281L425.406 406.688ZM486.969 410.844C486.615 415.74 484.802 419.594 481.531 422.406C478.281 425.219 473.99 426.625 468.656 426.625C462.823 426.625 458.229 424.667 454.875 420.75C451.542 416.812 449.875 411.417 449.875 404.562V401.781C449.875 397.406 450.646 393.552 452.188 390.219C453.729 386.885 455.927 384.333 458.781 382.562C461.656 380.771 464.99 379.875 468.781 379.875C474.031 379.875 478.26 381.281 481.469 384.094C484.677 386.906 486.531 390.854 487.031 395.938H477.656C477.427 393 476.604 390.875 475.188 389.562C473.792 388.229 471.656 387.562 468.781 387.562C465.656 387.562 463.312 388.688 461.75 390.938C460.208 393.167 459.417 396.635 459.375 401.344V404.781C459.375 409.698 460.115 413.292 461.594 415.562C463.094 417.833 465.448 418.969 468.656 418.969C471.552 418.969 473.708 418.312 475.125 417C476.562 415.667 477.385 413.615 477.594 410.844H486.969ZM491.125 408.781C491.125 405.427 491.771 402.438 493.062 399.812C494.354 397.188 496.208 395.156 498.625 393.719C501.062 392.281 503.885 391.562 507.094 391.562C511.656 391.562 515.375 392.958 518.25 395.75C521.146 398.542 522.76 402.333 523.094 407.125L523.156 409.438C523.156 414.625 521.708 418.792 518.812 421.938C515.917 425.062 512.031 426.625 507.156 426.625C502.281 426.625 498.385 425.062 495.469 421.938C492.573 418.812 491.125 414.562 491.125 409.188V408.781ZM500.156 409.438C500.156 412.646 500.76 415.104 501.969 416.812C503.177 418.5 504.906 419.344 507.156 419.344C509.344 419.344 511.052 418.51 512.281 416.844C513.51 415.156 514.125 412.469 514.125 408.781C514.125 405.635 513.51 403.198 512.281 401.469C511.052 399.74 509.323 398.875 507.094 398.875C504.885 398.875 503.177 399.74 501.969 401.469C500.76 403.177 500.156 405.833 500.156 409.438ZM527.312 408.844C527.312 403.573 528.49 399.375 530.844 396.25C533.219 393.125 536.458 391.562 540.562 391.562C543.854 391.562 546.573 392.792 548.719 395.25V378H557.781V426H549.625L549.188 422.406C546.938 425.219 544.042 426.625 540.5 426.625C536.521 426.625 533.323 425.062 530.906 421.938C528.51 418.792 527.312 414.427 527.312 408.844ZM536.344 409.5C536.344 412.667 536.896 415.094 538 416.781C539.104 418.469 540.708 419.312 542.812 419.312C545.604 419.312 547.573 418.135 548.719 415.781V402.438C547.594 400.083 545.646 398.906 542.875 398.906C538.521 398.906 536.344 402.438 536.344 409.5ZM580.344 426.625C575.385 426.625 571.344 425.104 568.219 422.062C565.115 419.021 563.562 414.969 563.562 409.906V409.031C563.562 405.635 564.219 402.604 565.531 399.938C566.844 397.25 568.698 395.188 571.094 393.75C573.51 392.292 576.26 391.562 579.344 391.562C583.969 391.562 587.604 393.021 590.25 395.938C592.917 398.854 594.25 402.99 594.25 408.344V412.031H572.719C573.01 414.24 573.885 416.01 575.344 417.344C576.823 418.677 578.688 419.344 580.938 419.344C584.417 419.344 587.135 418.083 589.094 415.562L593.531 420.531C592.177 422.448 590.344 423.948 588.031 425.031C585.719 426.094 583.156 426.625 580.344 426.625ZM579.312 398.875C577.521 398.875 576.062 399.479 574.938 400.688C573.833 401.896 573.125 403.625 572.812 405.875H585.375V405.156C585.333 403.156 584.792 401.615 583.75 400.531C582.708 399.427 581.229 398.875 579.312 398.875ZM623.594 414.062C623.594 412.292 622.969 410.938 621.719 410C620.469 409.042 618.219 408.042 614.969 407C611.719 405.938 609.146 404.896 607.25 403.875C602.083 401.083 599.5 397.323 599.5 392.594C599.5 390.135 600.188 387.948 601.562 386.031C602.958 384.094 604.948 382.583 607.531 381.5C610.135 380.417 613.052 379.875 616.281 379.875C619.531 379.875 622.427 380.469 624.969 381.656C627.51 382.823 629.479 384.479 630.875 386.625C632.292 388.771 633 391.208 633 393.938H623.625C623.625 391.854 622.969 390.24 621.656 389.094C620.344 387.927 618.5 387.344 616.125 387.344C613.833 387.344 612.052 387.833 610.781 388.812C609.51 389.771 608.875 391.042 608.875 392.625C608.875 394.104 609.615 395.344 611.094 396.344C612.594 397.344 614.792 398.281 617.688 399.156C623.021 400.76 626.906 402.75 629.344 405.125C631.781 407.5 633 410.458 633 414C633 417.938 631.51 421.031 628.531 423.281C625.552 425.51 621.542 426.625 616.5 426.625C613 426.625 609.812 425.99 606.938 424.719C604.062 423.427 601.865 421.667 600.344 419.438C598.844 417.208 598.094 414.625 598.094 411.688H607.5C607.5 416.708 610.5 419.219 616.5 419.219C618.729 419.219 620.469 418.771 621.719 417.875C622.969 416.958 623.594 415.688 623.594 414.062ZM669.219 409.406C669.219 414.615 668.031 418.792 665.656 421.938C663.302 425.062 660.115 426.625 656.094 426.625C652.677 426.625 649.917 425.438 647.812 423.062V439H638.781V392.188H647.156L647.469 395.5C649.656 392.875 652.51 391.562 656.031 391.562C660.198 391.562 663.438 393.104 665.75 396.188C668.062 399.271 669.219 403.521 669.219 408.938V409.406ZM660.188 408.75C660.188 405.604 659.625 403.177 658.5 401.469C657.396 399.76 655.781 398.906 653.656 398.906C650.823 398.906 648.875 399.99 647.812 402.156V416C648.917 418.229 650.885 419.344 653.719 419.344C658.031 419.344 660.188 415.812 660.188 408.75ZM684.375 426H675.312V378H684.375V426ZM711.438 426C711.021 425.188 710.719 424.177 710.531 422.969C708.344 425.406 705.5 426.625 702 426.625C698.688 426.625 695.938 425.667 693.75 423.75C691.583 421.833 690.5 419.417 690.5 416.5C690.5 412.917 691.823 410.167 694.469 408.25C697.135 406.333 700.979 405.365 706 405.344H710.156V403.406C710.156 401.844 709.75 400.594 708.938 399.656C708.146 398.719 706.885 398.25 705.156 398.25C703.635 398.25 702.438 398.615 701.562 399.344C700.708 400.073 700.281 401.073 700.281 402.344H691.25C691.25 400.385 691.854 398.573 693.062 396.906C694.271 395.24 695.979 393.938 698.188 393C700.396 392.042 702.875 391.562 705.625 391.562C709.792 391.562 713.094 392.615 715.531 394.719C717.99 396.802 719.219 399.74 719.219 403.531V418.188C719.24 421.396 719.688 423.823 720.562 425.469V426H711.438ZM703.969 419.719C705.302 419.719 706.531 419.427 707.656 418.844C708.781 418.24 709.615 417.438 710.156 416.438V410.625H706.781C702.26 410.625 699.854 412.188 699.562 415.312L699.531 415.844C699.531 416.969 699.927 417.896 700.719 418.625C701.51 419.354 702.594 419.719 703.969 419.719ZM744.469 416.656C744.469 415.552 743.917 414.688 742.812 414.062C741.729 413.417 739.979 412.844 737.562 412.344C729.521 410.656 725.5 407.24 725.5 402.094C725.5 399.094 726.74 396.594 729.219 394.594C731.719 392.573 734.979 391.562 739 391.562C743.292 391.562 746.719 392.573 749.281 394.594C751.865 396.615 753.156 399.24 753.156 402.469H744.125C744.125 401.177 743.708 400.115 742.875 399.281C742.042 398.427 740.74 398 738.969 398C737.448 398 736.271 398.344 735.438 399.031C734.604 399.719 734.188 400.594 734.188 401.656C734.188 402.656 734.656 403.469 735.594 404.094C736.552 404.698 738.156 405.229 740.406 405.688C742.656 406.125 744.552 406.625 746.094 407.188C750.865 408.938 753.25 411.969 753.25 416.281C753.25 419.365 751.927 421.865 749.281 423.781C746.635 425.677 743.219 426.625 739.031 426.625C736.198 426.625 733.677 426.125 731.469 425.125C729.281 424.104 727.562 422.719 726.312 420.969C725.062 419.198 724.438 417.292 724.438 415.25H733C733.083 416.854 733.677 418.083 734.781 418.938C735.885 419.792 737.365 420.219 739.219 420.219C740.948 420.219 742.25 419.896 743.125 419.25C744.021 418.583 744.469 417.719 744.469 416.656ZM767.906 395.875C770.302 393 773.312 391.562 776.938 391.562C784.271 391.562 787.99 395.823 788.094 404.344V426H779.062V404.594C779.062 402.656 778.646 401.229 777.812 400.312C776.979 399.375 775.594 398.906 773.656 398.906C771.01 398.906 769.094 399.927 767.906 401.969V426H758.875V378H767.906V395.875ZM813.688 429.906H806.969L823.719 380.5H830.438L813.688 429.906ZM853.219 406.594L835.062 400.25V391.562L862.281 402.969V410.312L835.062 421.75V413.031L853.219 406.594Z" fill="black"/>
</svg>
